<svg width="340" height="60" viewBox="0 0 340 60" fill="none" xmlns="http://www.w3.org/2000/svg">
<path d="M7.50513 19.2375C8.20072 19.2375 8.76983 19.1848 9.21248 19.0794C9.6762 18.9529 10.0451 18.7949 10.3191 18.6052C10.5931 18.3944 10.7828 18.152 10.8882 17.878C10.9936 17.6039 11.0463 17.2983 11.0463 16.961C11.0463 16.2444 10.709 15.6542 10.0345 15.1905C9.36003 14.7057 8.20072 14.1892 6.5566 13.6412C5.83994 13.3883 5.12327 13.1037 4.40661 12.7875C3.68994 12.4503 3.04705 12.0392 2.47793 11.5544C1.90882 11.0486 1.44509 10.4478 1.08676 9.75223C0.728428 9.03557 0.549261 8.17135 0.549261 7.15959C0.549261 6.14783 0.738967 5.24146 1.11838 4.44048C1.49779 3.61842 2.03529 2.92284 2.73087 2.35372C3.42646 1.7846 4.2696 1.3525 5.26028 1.0574C6.25096 0.741224 7.36812 0.583135 8.61174 0.583135C10.0872 0.583135 11.3625 0.741224 12.4375 1.0574C13.5125 1.37358 14.3978 1.72137 15.0933 2.10078L13.6706 5.98974C13.0593 5.67357 12.3742 5.39955 11.6154 5.16769C10.8777 4.91474 9.98184 4.78827 8.92792 4.78827C7.74753 4.78827 6.89386 4.9569 6.3669 5.29416C5.86101 5.61033 5.60807 6.10567 5.60807 6.78018C5.60807 7.18067 5.70293 7.51792 5.89263 7.79194C6.08234 8.06596 6.34582 8.3189 6.68307 8.55077C7.0414 8.76155 7.44189 8.96179 7.88454 9.1515C8.34826 9.32013 8.85415 9.49929 9.40218 9.689C10.5404 10.1106 11.5311 10.5321 12.3742 10.9537C13.2174 11.3542 13.913 11.8285 14.461 12.3765C15.0301 12.9245 15.4517 13.5674 15.7257 14.3052C15.9997 15.0429 16.1367 15.9387 16.1367 16.9927C16.1367 19.0373 15.4201 20.6287 13.9867 21.7669C12.5534 22.8841 10.3929 23.4426 7.50513 23.4426C6.53552 23.4426 5.66077 23.3794 4.88087 23.2529C4.10097 23.1475 3.40538 23.0105 2.79411 22.8419C2.20391 22.6733 1.68749 22.4941 1.24485 22.3044C0.82328 22.1147 0.464948 21.9355 0.16985 21.7669L1.56102 17.8463C2.21445 18.2047 3.01543 18.5314 3.96396 18.8265C4.93357 19.1005 6.11396 19.2375 7.50513 19.2375ZM19.9318 1.08902H24.8642V23H19.9318V1.08902ZM35.9115 19.2375C36.6071 19.2375 37.1763 19.1848 37.6189 19.0794C38.0826 18.9529 38.4515 18.7949 38.7255 18.6052C38.9995 18.3944 39.1892 18.152 39.2946 17.878C39.4 17.6039 39.4527 17.2983 39.4527 16.961C39.4527 16.2444 39.1155 15.6542 38.441 15.1905C37.7664 14.7057 36.6071 14.1892 34.963 13.6412C34.2464 13.3883 33.5297 13.1037 32.813 12.7875C32.0964 12.4503 31.4535 12.0392 30.8844 11.5544C30.3152 11.0486 29.8515 10.4478 29.4932 9.75223C29.1348 9.03557 28.9557 8.17135 28.9557 7.15959C28.9557 6.14783 29.1454 5.24146 29.5248 4.44048C29.9042 3.61842 30.4417 2.92284 31.1373 2.35372C31.8329 1.7846 32.676 1.3525 33.6667 1.0574C34.6574 0.741224 35.7745 0.583135 37.0182 0.583135C38.4936 0.583135 39.7689 0.741224 40.8439 1.0574C41.9189 1.37358 42.8042 1.72137 43.4998 2.10078L42.077 5.98974C41.4657 5.67357 40.7807 5.39955 40.0218 5.16769C39.2841 4.91474 38.3883 4.78827 37.3343 4.78827C36.1539 4.78827 35.3003 4.9569 34.7733 5.29416C34.2674 5.61033 34.0145 6.10567 34.0145 6.78018C34.0145 7.18067 34.1093 7.51792 34.2991 7.79194C34.4888 8.06596 34.7522 8.3189 35.0895 8.55077C35.4478 8.76155 35.8483 8.96179 36.291 9.1515C36.7547 9.32013 37.2606 9.49929 37.8086 9.689C38.9468 10.1106 39.9375 10.5321 40.7807 10.9537C41.6238 11.3542 42.3194 11.8285 42.8674 12.3765C43.4365 12.9245 43.8581 13.5674 44.1321 14.3052C44.4061 15.0429 44.5431 15.9387 44.5431 16.9927C44.5431 19.0373 43.8265 20.6287 42.3932 21.7669C40.9598 22.8841 38.7993 23.4426 35.9115 23.4426C34.9419 23.4426 34.0672 23.3794 33.2873 23.2529C32.5074 23.1475 31.8118 23.0105 31.2005 22.8419C30.6103 22.6733 30.0939 22.4941 29.6513 22.3044C29.2297 22.1147 28.8714 21.9355 28.5763 21.7669L29.9674 17.8463C30.6209 18.2047 31.4219 18.5314 32.3704 18.8265C33.34 19.1005 34.5204 19.2375 35.9115 19.2375ZM63.9722 1.08902V5.29416H57.3641V23H52.4317V5.29416H45.8237V1.08902H63.9722ZM67.1421 23V1.08902H81.9391V5.23092H72.0744V9.53091H80.8325V13.578H72.0744V18.8581H82.6663V23H67.1421ZM92.134 1.08902C92.5134 1.7846 92.9455 2.64882 93.4303 3.68166C93.9362 4.69342 94.4526 5.80004 94.9796 7.0015C95.5276 8.18189 96.0651 9.3939 96.5921 10.6375C97.1191 11.8812 97.6144 13.051 98.0781 14.1471C98.5419 13.051 99.0372 11.8812 99.5642 10.6375C100.091 9.3939 100.618 8.18189 101.145 7.0015C101.693 5.80004 102.209 4.69342 102.694 3.68166C103.2 2.64882 103.643 1.7846 104.022 1.08902H108.512C108.723 2.54343 108.912 4.177 109.081 5.98974C109.271 7.7814 109.429 9.65738 109.555 11.6177C109.703 13.5569 109.829 15.5066 109.935 17.4669C110.061 19.4272 110.167 21.2716 110.251 23H105.445C105.382 20.8711 105.297 18.5525 105.192 16.0441C105.087 13.5358 104.929 11.0064 104.718 8.45591C104.338 9.34121 103.917 10.3214 103.453 11.3963C102.989 12.4713 102.526 13.5463 102.062 14.6213C101.619 15.6963 101.187 16.7292 100.766 17.7199C100.344 18.6895 99.9857 19.5221 99.6906 20.2177H96.2443C95.9492 19.5221 95.5909 18.6895 95.1693 17.7199C94.7477 16.7292 94.3051 15.6963 93.8414 14.6213C93.3987 13.5463 92.9455 12.4713 92.4818 11.3963C92.0181 10.3214 91.5965 9.34121 91.2171 8.45591C91.0063 11.0064 90.8482 13.5358 90.7428 16.0441C90.6375 18.5525 90.5531 20.8711 90.4899 23H85.684C85.7683 21.2716 85.8632 19.4272 85.9686 17.4669C86.0951 15.5066 86.2215 13.5569 86.348 11.6177C86.4956 9.65738 86.6536 7.7814 86.8223 5.98974C87.012 4.177 87.2122 2.54343 87.423 1.08902H92.134ZM122.288 1.08902H127.22V23H122.288V1.08902ZM146.994 23C145.581 20.4917 144.053 18.015 142.409 15.5699C140.765 13.1248 139.016 10.8167 137.161 8.64562V23H132.292V1.08902H136.307C137.003 1.7846 137.772 2.63828 138.615 3.65004C139.458 4.6618 140.312 5.74734 141.176 6.90665C142.061 8.04489 142.936 9.23581 143.8 10.4794C144.665 11.702 145.476 12.8824 146.235 14.0206V1.08902H151.136V23H146.994ZM156.19 23V1.08902H170.861V5.23092H161.122V9.81547H169.786V13.9574H161.122V23H156.19ZM178.24 12.0287C178.24 13.1037 178.367 14.0733 178.62 14.9375C178.894 15.8017 179.273 16.55 179.758 17.1824C180.264 17.7936 180.875 18.2679 181.592 18.6052C182.308 18.9424 183.13 19.111 184.058 19.111C184.964 19.111 185.776 18.9424 186.492 18.6052C187.23 18.2679 187.841 17.7936 188.326 17.1824C188.832 16.55 189.212 15.8017 189.465 14.9375C189.739 14.0733 189.876 13.1037 189.876 12.0287C189.876 10.9537 189.739 9.9841 189.465 9.11988C189.212 8.23459 188.832 7.48631 188.326 6.87503C187.841 6.24268 187.23 5.75788 186.492 5.42062C185.776 5.08337 184.964 4.91474 184.058 4.91474C183.13 4.91474 182.308 5.09391 181.592 5.45224C180.875 5.7895 180.264 6.2743 179.758 6.90665C179.273 7.51793 178.894 8.26621 178.62 9.1515C178.367 10.0157 178.24 10.9748 178.24 12.0287ZM194.966 12.0287C194.966 13.9047 194.681 15.5593 194.112 16.9927C193.564 18.4049 192.805 19.5958 191.836 20.5654C190.866 21.514 189.707 22.2306 188.358 22.7154C187.03 23.2002 185.597 23.4426 184.058 23.4426C182.561 23.4426 181.149 23.2002 179.821 22.7154C178.493 22.2306 177.334 21.514 176.343 20.5654C175.353 19.5958 174.573 18.4049 174.004 16.9927C173.434 15.5593 173.15 13.9047 173.15 12.0287C173.15 10.1527 173.445 8.50861 174.035 7.09636C174.625 5.66303 175.416 4.46156 176.406 3.49195C177.418 2.52235 178.578 1.79514 179.884 1.31034C181.212 0.825537 182.604 0.583135 184.058 0.583135C185.554 0.583135 186.967 0.825537 188.295 1.31034C189.623 1.79514 190.782 2.52235 191.773 3.49195C192.763 4.46156 193.543 5.66303 194.112 7.09636C194.681 8.50861 194.966 10.1527 194.966 12.0287ZM205.496 0.836076C208.784 0.836076 211.303 1.42627 213.052 2.60666C214.802 3.76597 215.677 5.57871 215.677 8.04488C215.677 9.58361 215.318 10.8378 214.602 11.8074C213.906 12.7559 212.894 13.5042 211.566 14.0522C212.009 14.6003 212.473 15.2326 212.958 15.9493C213.442 16.6449 213.917 17.3826 214.38 18.1625C214.865 18.9213 215.329 19.7223 215.772 20.5654C216.214 21.3875 216.625 22.199 217.005 23H211.472C211.071 22.2833 210.66 21.5561 210.239 20.8184C209.838 20.0806 209.416 19.364 208.974 18.6684C208.552 17.9728 208.131 17.3194 207.709 16.7081C207.288 16.0757 206.866 15.5066 206.444 15.0008H204.01V23H199.078V1.40519C200.153 1.19441 201.259 1.04686 202.397 0.962547C203.557 0.878233 204.59 0.836076 205.496 0.836076ZM205.78 5.04121C205.422 5.04121 205.095 5.05175 204.8 5.07283C204.526 5.09391 204.263 5.11499 204.01 5.13607V11.0802H205.401C207.256 11.0802 208.584 10.8483 209.385 10.3846C210.186 9.92086 210.586 9.13042 210.586 8.01327C210.586 6.93827 210.175 6.17945 209.353 5.7368C208.552 5.27308 207.361 5.04121 205.78 5.04121ZM225.984 1.08902C226.363 1.7846 226.795 2.64882 227.28 3.68166C227.786 4.69342 228.302 5.80004 228.829 7.0015C229.377 8.18189 229.915 9.3939 230.442 10.6375C230.969 11.8812 231.464 13.051 231.928 14.1471C232.392 13.051 232.887 11.8812 233.414 10.6375C233.941 9.3939 234.468 8.18189 234.995 7.0015C235.543 5.80004 236.059 4.69342 236.544 3.68166C237.05 2.64882 237.493 1.7846 237.872 1.08902H242.362C242.573 2.54343 242.762 4.177 242.931 5.98974C243.121 7.7814 243.279 9.65738 243.405 11.6177C243.553 13.5569 243.679 15.5066 243.785 17.4669C243.911 19.4272 244.016 21.2716 244.101 23H239.295C239.232 20.8711 239.147 18.5525 239.042 16.0441C238.937 13.5358 238.778 11.0064 238.568 8.45591C238.188 9.34121 237.767 10.3214 237.303 11.3963C236.839 12.4713 236.375 13.5463 235.912 14.6213C235.469 15.6963 235.037 16.7292 234.615 17.7199C234.194 18.6895 233.836 19.5221 233.54 20.2177H230.094C229.799 19.5221 229.441 18.6895 229.019 17.7199C228.598 16.7292 228.155 15.6963 227.691 14.6213C227.249 13.5463 226.795 12.4713 226.332 11.3963C225.868 10.3214 225.446 9.34121 225.067 8.45591C224.856 11.0064 224.698 13.5358 224.593 16.0441C224.487 18.5525 224.403 20.8711 224.34 23H219.534C219.618 21.2716 219.713 19.4272 219.818 17.4669C219.945 15.5066 220.071 13.5569 220.198 11.6177C220.345 9.65738 220.503 7.7814 220.672 5.98974C220.862 4.177 221.062 2.54343 221.273 1.08902H225.984ZM263.212 23C262.98 22.2412 262.717 21.4613 262.422 20.6603C262.148 19.8593 261.874 19.0583 261.6 18.2574H253.063C252.789 19.0583 252.504 19.8593 252.209 20.6603C251.935 21.4613 251.682 22.2412 251.451 23H246.329C247.151 20.6392 247.93 18.4576 248.668 16.4552C249.406 14.4527 250.123 12.5662 250.818 10.7956C251.535 9.02503 252.23 7.3493 252.905 5.76842C253.601 4.16646 254.317 2.60666 255.055 1.08902H259.766C260.483 2.60666 261.189 4.16646 261.884 5.76842C262.58 7.3493 263.276 9.02503 263.971 10.7956C264.688 12.5662 265.415 14.4527 266.153 16.4552C266.89 18.4576 267.67 20.6392 268.492 23H263.212ZM257.3 6.05298C257.194 6.36915 257.036 6.80126 256.826 7.3493C256.615 7.89734 256.372 8.52969 256.098 9.24635C255.824 9.96302 255.519 10.7535 255.181 11.6177C254.865 12.4819 254.539 13.3883 254.201 14.3368H260.43C260.093 13.3883 259.766 12.4819 259.45 11.6177C259.134 10.7535 258.828 9.96302 258.533 9.24635C258.259 8.52969 258.016 7.89734 257.806 7.3493C257.595 6.80126 257.426 6.36915 257.3 6.05298ZM277.891 19.2375C278.587 19.2375 279.156 19.1848 279.598 19.0794C280.062 18.9529 280.431 18.7949 280.705 18.6052C280.979 18.3944 281.169 18.152 281.274 17.878C281.379 17.6039 281.432 17.2983 281.432 16.961C281.432 16.2444 281.095 15.6542 280.42 15.1905C279.746 14.7057 278.587 14.1892 276.942 13.6412C276.226 13.3883 275.509 13.1037 274.792 12.7875C274.076 12.4503 273.433 12.0392 272.864 11.5544C272.295 11.0486 271.831 10.4478 271.473 9.75223C271.114 9.03557 270.935 8.17135 270.935 7.15959C270.935 6.14783 271.125 5.24146 271.504 4.44048C271.884 3.61842 272.421 2.92284 273.117 2.35372C273.812 1.7846 274.655 1.3525 275.646 1.0574C276.637 0.741224 277.754 0.583135 278.998 0.583135C280.473 0.583135 281.748 0.741224 282.823 1.0574C283.898 1.37358 284.784 1.72137 285.479 2.10078L284.056 5.98974C283.445 5.67357 282.76 5.39955 282.001 5.16769C281.264 4.91474 280.368 4.78827 279.314 4.78827C278.133 4.78827 277.28 4.9569 276.753 5.29416C276.247 5.61033 275.994 6.10567 275.994 6.78018C275.994 7.18067 276.089 7.51792 276.278 7.79194C276.468 8.06596 276.732 8.3189 277.069 8.55077C277.427 8.76155 277.828 8.96179 278.27 9.1515C278.734 9.32013 279.24 9.49929 279.788 9.689C280.926 10.1106 281.917 10.5321 282.76 10.9537C283.603 11.3542 284.299 11.8285 284.847 12.3765C285.416 12.9245 285.838 13.5674 286.112 14.3052C286.386 15.0429 286.523 15.9387 286.523 16.9927C286.523 19.0373 285.806 20.6287 284.373 21.7669C282.939 22.8841 280.779 23.4426 277.891 23.4426C276.921 23.4426 276.047 23.3794 275.267 23.2529C274.487 23.1475 273.791 23.0105 273.18 22.8419C272.59 22.6733 272.073 22.4941 271.631 22.3044C271.209 22.1147 270.851 21.9355 270.556 21.7669L271.947 17.8463C272.6 18.2047 273.401 18.5314 274.35 18.8265C275.319 19.1005 276.5 19.2375 277.891 19.2375ZM290.318 1.08902H295.25V23H290.318V1.08902ZM8.83307 59.2846C7.6316 59.2846 6.43013 59.2424 5.22866 59.1581C4.04827 59.0949 2.81519 58.9262 1.52941 58.6522V37.4052C2.54117 37.2155 3.64778 37.0785 4.84925 36.9942C6.05072 36.8888 7.16787 36.8361 8.20072 36.8361C9.59189 36.8361 10.8671 36.9415 12.0264 37.1523C13.2068 37.342 14.2186 37.6792 15.0617 38.164C15.9049 38.6488 16.5583 39.2917 17.022 40.0927C17.5068 40.8726 17.7492 41.8422 17.7492 43.0015C17.7492 44.751 16.9061 46.1316 15.2198 47.1434C16.611 47.6704 17.5595 48.387 18.0654 49.2934C18.5713 50.1998 18.8242 51.2221 18.8242 52.3603C18.8242 54.6579 17.9811 56.3863 16.2948 57.5456C14.6296 58.7049 12.1424 59.2846 8.83307 59.2846ZM6.33528 49.4515V55.111C6.69361 55.1532 7.08356 55.1848 7.50513 55.2059C7.9267 55.227 8.39042 55.2375 8.8963 55.2375C10.3718 55.2375 11.5627 55.0267 12.4691 54.6052C13.3755 54.1836 13.8286 53.4037 13.8286 52.2655C13.8286 51.2537 13.4492 50.537 12.6904 50.1155C11.9316 49.6728 10.8461 49.4515 9.4338 49.4515H6.33528ZM6.33528 45.689H8.73822C10.2559 45.689 11.3414 45.4993 11.9948 45.1199C12.6483 44.7194 12.975 44.087 12.975 43.2228C12.975 42.3375 12.6377 41.7157 11.9632 41.3574C11.2887 40.9991 10.298 40.8199 8.99116 40.8199C8.56959 40.8199 8.1164 40.8304 7.6316 40.8515C7.1468 40.8515 6.71469 40.8726 6.33528 40.9147V45.689ZM37.1343 59C36.9024 58.2412 36.6389 57.4613 36.3438 56.6603C36.0698 55.8593 35.7958 55.0583 35.5218 54.2574H26.985C26.711 55.0583 26.4264 55.8593 26.1313 56.6603C25.8573 57.4613 25.6044 58.2412 25.3725 59H20.2505C21.0725 56.6392 21.8524 54.4576 22.5902 52.4552C23.3279 50.4527 24.0446 48.5662 24.7402 46.7956C25.4568 45.025 26.1524 43.3493 26.8269 41.7684C27.5225 40.1665 28.2392 38.6067 28.9769 37.089H33.6879C34.4046 38.6067 35.1107 40.1665 35.8063 41.7684C36.5019 43.3493 37.1975 45.025 37.8931 46.7956C38.6097 48.5662 39.337 50.4527 40.0747 52.4552C40.8124 54.4576 41.5923 56.6392 42.4144 59H37.1343ZM31.2218 42.053C31.1164 42.3692 30.9583 42.8013 30.7475 43.3493C30.5367 43.8973 30.2943 44.5297 30.0203 45.2464C29.7463 45.963 29.4406 46.7535 29.1034 47.6177C28.7872 48.4819 28.4605 49.3883 28.1232 50.3368H34.3519C34.0147 49.3883 33.6879 48.4819 33.3718 47.6177C33.0556 46.7535 32.75 45.963 32.4549 45.2464C32.1808 44.5297 31.9384 43.8973 31.7277 43.3493C31.5169 42.8013 31.3482 42.3692 31.2218 42.053ZM58.9084 37.089V41.2942H52.3003V59H47.368V41.2942H40.7599V37.089H58.9084ZM62.0783 37.089H67.0106V59H62.0783V37.089ZM77.8999 37.089C78.2794 37.7846 78.7115 38.6488 79.1963 39.6817C79.7021 40.6934 80.2186 41.8 80.7455 43.0015C81.2936 44.1819 81.8311 45.3939 82.358 46.6375C82.885 47.8812 83.3803 49.051 83.844 50.1471C84.3078 49.051 84.8031 47.8812 85.3301 46.6375C85.857 45.3939 86.384 44.1819 86.911 43.0015C87.459 41.8 87.9754 40.6934 88.4602 39.6817C88.9661 38.6488 89.4087 37.7846 89.7882 37.089H94.2779C94.4886 38.5434 94.6783 40.177 94.847 41.9897C95.0367 43.7814 95.1948 45.6574 95.3212 47.6177C95.4688 49.5569 95.5952 51.5066 95.7006 53.4669C95.8271 55.4272 95.9325 57.2716 96.0168 59H91.2109C91.1477 56.8711 91.0634 54.5525 90.958 52.0441C90.8526 49.5358 90.6945 47.0064 90.4837 44.4559C90.1043 45.3412 89.6828 46.3214 89.219 47.3963C88.7553 48.4713 88.2916 49.5463 87.8279 50.6213C87.3852 51.6963 86.9531 52.7292 86.5315 53.7199C86.11 54.6895 85.7516 55.5221 85.4565 56.2177H82.0102C81.7151 55.5221 81.3568 54.6895 80.9352 53.7199C80.5137 52.7292 80.071 51.6963 79.6073 50.6213C79.1646 49.5463 78.7115 48.4713 78.2477 47.3963C77.784 46.3214 77.3624 45.3412 76.983 44.4559C76.7722 47.0064 76.6142 49.5358 76.5088 52.0441C76.4034 54.5525 76.3191 56.8711 76.2558 59H71.45C71.5343 57.2716 71.6291 55.4272 71.7345 53.4669C71.861 51.5066 71.9875 49.5569 72.1139 47.6177C72.2615 45.6574 72.4196 43.7814 72.5882 41.9897C72.7779 40.177 72.9781 38.5434 73.1889 37.089H77.8999ZM100.458 59V37.089H115.255V41.2309H105.39V45.5309H114.148V49.578H105.39V54.8581H115.982V59H100.458ZM135.884 37.089V41.2942H129.276V59H124.343V41.2942H117.735V37.089H135.884ZM145.472 36.8361C148.76 36.8361 151.279 37.4263 153.028 38.6067C154.778 39.766 155.653 41.5787 155.653 44.0449C155.653 45.5836 155.294 46.8378 154.578 47.8074C153.882 48.7559 152.87 49.5042 151.542 50.0522C151.985 50.6003 152.449 51.2326 152.934 51.9493C153.418 52.6449 153.893 53.3826 154.356 54.1625C154.841 54.9213 155.305 55.7223 155.748 56.5654C156.19 57.3875 156.601 58.199 156.981 59H151.448C151.047 58.2833 150.636 57.5561 150.215 56.8184C149.814 56.0806 149.392 55.364 148.95 54.6684C148.528 53.9728 148.107 53.3194 147.685 52.7081C147.264 52.0757 146.842 51.5066 146.42 51.0008H143.986V59H139.054V37.4052C140.129 37.1944 141.235 37.0469 142.373 36.9625C143.533 36.8782 144.566 36.8361 145.472 36.8361ZM145.756 41.0412C145.398 41.0412 145.071 41.0518 144.776 41.0728C144.502 41.0939 144.239 41.115 143.986 41.1361V47.0802H145.377C147.232 47.0802 148.56 46.8483 149.361 46.3846C150.162 45.9209 150.562 45.1304 150.562 44.0133C150.562 42.9383 150.151 42.1794 149.329 41.7368C148.528 41.2731 147.337 41.0412 145.756 41.0412ZM160.142 37.089H165.075V59H160.142V37.089ZM192.444 59C191.032 56.4917 189.504 54.015 187.859 51.5699C186.215 49.1248 184.466 46.8167 182.611 44.6456V59H177.742V37.089H181.757C182.453 37.7846 183.222 38.6383 184.065 39.65C184.908 40.6618 185.762 41.7473 186.626 42.9067C187.512 44.0449 188.386 45.2358 189.251 46.4794C190.115 47.702 190.926 48.8824 191.685 50.0206V37.089H196.586V59H192.444ZM216.311 59C216.079 58.2412 215.815 57.4613 215.52 56.6603C215.246 55.8593 214.972 55.0583 214.698 54.2574H206.162C205.888 55.0583 205.603 55.8593 205.308 56.6603C205.034 57.4613 204.781 58.2412 204.549 59H199.427C200.249 56.6392 201.029 54.4576 201.767 52.4552C202.504 50.4527 203.221 48.5662 203.917 46.7956C204.633 45.025 205.329 43.3493 206.004 41.7684C206.699 40.1665 207.416 38.6067 208.153 37.089H212.865C213.581 38.6067 214.287 40.1665 214.983 41.7684C215.678 43.3493 216.374 45.025 217.07 46.7956C217.786 48.5662 218.514 50.4527 219.251 52.4552C219.989 54.4576 220.769 56.6392 221.591 59H216.311ZM210.398 42.053C210.293 42.3692 210.135 42.8013 209.924 43.3493C209.713 43.8973 209.471 44.5297 209.197 45.2464C208.923 45.963 208.617 46.7535 208.28 47.6177C207.964 48.4819 207.637 49.3883 207.3 50.3368H213.528C213.191 49.3883 212.865 48.4819 212.548 47.6177C212.232 46.7535 211.927 45.963 211.631 45.2464C211.357 44.5297 211.115 43.8973 210.904 43.3493C210.693 42.8013 210.525 42.3692 210.398 42.053ZM230.99 55.2375C231.685 55.2375 232.254 55.1848 232.697 55.0794C233.161 54.9529 233.529 54.7949 233.803 54.6052C234.078 54.3944 234.267 54.152 234.373 53.878C234.478 53.6039 234.531 53.2983 234.531 52.961C234.531 52.2444 234.193 51.6542 233.519 51.1905C232.844 50.7057 231.685 50.1892 230.041 49.6412C229.324 49.3883 228.608 49.1037 227.891 48.7875C227.174 48.4503 226.531 48.0392 225.962 47.5544C225.393 47.0486 224.929 46.4478 224.571 45.7522C224.213 45.0356 224.034 44.1714 224.034 43.1596C224.034 42.1478 224.223 41.2415 224.603 40.4405C224.982 39.6184 225.52 38.9228 226.215 38.3537C226.911 37.7846 227.754 37.3525 228.745 37.0574C229.735 36.7412 230.853 36.5831 232.096 36.5831C233.572 36.5831 234.847 36.7412 235.922 37.0574C236.997 37.3736 237.882 37.7214 238.578 38.1008L237.155 41.9897C236.544 41.6736 235.859 41.3995 235.1 41.1677C234.362 40.9147 233.466 40.7883 232.412 40.7883C231.232 40.7883 230.378 40.9569 229.851 41.2942C229.345 41.6103 229.092 42.1057 229.092 42.7802C229.092 43.1807 229.187 43.5179 229.377 43.7919C229.567 44.066 229.83 44.3189 230.167 44.5508C230.526 44.7615 230.926 44.9618 231.369 45.1515C231.833 45.3201 232.339 45.4993 232.887 45.689C234.025 46.1106 235.016 46.5321 235.859 46.9537C236.702 47.3542 237.397 47.8285 237.945 48.3765C238.515 48.9245 238.936 49.5674 239.21 50.3052C239.484 51.0429 239.621 51.9387 239.621 52.9927C239.621 55.0373 238.904 56.6287 237.471 57.7669C236.038 58.8841 233.877 59.4426 230.99 59.4426C230.02 59.4426 229.145 59.3794 228.365 59.2529C227.585 59.1475 226.89 59.0105 226.279 58.8419C225.688 58.6733 225.172 58.4941 224.729 58.3044C224.308 58.1147 223.949 57.9355 223.654 57.7669L225.045 53.8463C225.699 54.2047 226.5 54.5314 227.448 54.8265C228.418 55.1005 229.598 55.2375 230.99 55.2375ZM243.416 37.089H248.349V59H243.416V37.089ZM257.562 48.0287C257.562 49.1037 257.689 50.0733 257.942 50.9375C258.216 51.8017 258.595 52.55 259.08 53.1824C259.586 53.7936 260.197 54.2679 260.914 54.6052C261.63 54.9424 262.452 55.111 263.38 55.111C264.286 55.111 265.098 54.9424 265.814 54.6052C266.552 54.2679 267.163 53.7936 267.648 53.1824C268.154 52.55 268.533 51.8017 268.786 50.9375C269.06 50.0733 269.197 49.1037 269.197 48.0287C269.197 46.9537 269.06 45.9841 268.786 45.1199C268.533 44.2346 268.154 43.4863 267.648 42.875C267.163 42.2427 266.552 41.7579 265.814 41.4206C265.098 41.0834 264.286 40.9147 263.38 40.9147C262.452 40.9147 261.63 41.0939 260.914 41.4522C260.197 41.7895 259.586 42.2743 259.08 42.9067C258.595 43.5179 258.216 44.2662 257.942 45.1515C257.689 46.0157 257.562 46.9748 257.562 48.0287ZM274.288 48.0287C274.288 49.9047 274.003 51.5593 273.434 52.9927C272.886 54.4049 272.127 55.5958 271.158 56.5654C270.188 57.514 269.029 58.2306 267.68 58.7154C266.352 59.2002 264.918 59.4426 263.38 59.4426C261.883 59.4426 260.471 59.2002 259.143 58.7154C257.815 58.2306 256.656 57.514 255.665 56.5654C254.674 55.5958 253.894 54.4049 253.325 52.9927C252.756 51.5593 252.472 49.9047 252.472 48.0287C252.472 46.1527 252.767 44.5086 253.357 43.0964C253.947 41.663 254.738 40.4616 255.728 39.492C256.74 38.5223 257.899 37.7951 259.206 37.3103C260.534 36.8255 261.925 36.5831 263.38 36.5831C264.876 36.5831 266.289 36.8255 267.617 37.3103C268.944 37.7951 270.104 38.5223 271.094 39.492C272.085 40.4616 272.865 41.663 273.434 43.0964C274.003 44.5086 274.288 46.1527 274.288 48.0287ZM293.102 59C291.689 56.4917 290.161 54.015 288.517 51.5699C286.873 49.1248 285.123 46.8167 283.268 44.6456V59H278.399V37.089H282.415C283.11 37.7846 283.88 38.6383 284.723 39.65C285.566 40.6618 286.42 41.7473 287.284 42.9067C288.169 44.0449 289.044 45.2358 289.908 46.4794C290.772 47.702 291.584 48.8824 292.343 50.0206V37.089H297.243V59H293.102ZM316.968 59C316.737 58.2412 316.473 57.4613 316.178 56.6603C315.904 55.8593 315.63 55.0583 315.356 54.2574H306.819C306.545 55.0583 306.261 55.8593 305.965 56.6603C305.691 57.4613 305.438 58.2412 305.207 59H300.085C300.907 56.6392 301.687 54.4576 302.424 52.4552C303.162 50.4527 303.879 48.5662 304.574 46.7956C305.291 45.025 305.987 43.3493 306.661 41.7684C307.357 40.1665 308.073 38.6067 308.811 37.089H313.522C314.239 38.6067 314.945 40.1665 315.64 41.7684C316.336 43.3493 317.032 45.025 317.727 46.7956C318.444 48.5662 319.171 50.4527 319.909 52.4552C320.647 54.4576 321.426 56.6392 322.249 59H316.968ZM311.056 42.053C310.95 42.3692 310.792 42.8013 310.582 43.3493C310.371 43.8973 310.128 44.5297 309.854 45.2464C309.58 45.963 309.275 46.7535 308.938 47.6177C308.621 48.4819 308.295 49.3883 307.957 50.3368H314.186C313.849 49.3883 313.522 48.4819 313.206 47.6177C312.89 46.7535 312.584 45.963 312.289 45.2464C312.015 44.5297 311.773 43.8973 311.562 43.3493C311.351 42.8013 311.182 42.3692 311.056 42.053ZM339.724 54.7632V59H325.085V37.089H330.017V54.7632H339.724Z" fill="#121A4E"/>
</svg>
